M48
; DRILL file {KiCad (6.0.6)} date Sun Feb  5 12:01:34 2023
; FORMAT={-:-/ absolute / metric / decimal}
; #@! TF.CreationDate,2023-02-05T12:01:34+01:00
; #@! TF.GenerationSoftware,Kicad,Pcbnew,(6.0.6)
; #@! TF.FileFunction,Plated,1,2,PTH
FMAT,2
METRIC
; #@! TA.AperFunction,Plated,PTH,ComponentDrill
T1C0.762
; #@! TA.AperFunction,Plated,PTH,ComponentDrill
T2C0.800
; #@! TA.AperFunction,Plated,PTH,ComponentDrill
T3C1.000
; #@! TA.AperFunction,Plated,PTH,ComponentDrill
T4C1.100
; #@! TA.AperFunction,Plated,PTH,ComponentDrill
T5C1.300
; #@! TA.AperFunction,Plated,PTH,ComponentDrill
T6C3.200
%
G90
G05
T1
X84.985Y-87.645
X84.985Y-90.185
X84.985Y-92.725
X84.985Y-95.265
X84.985Y-97.805
X84.985Y-100.345
X84.985Y-102.885
X84.985Y-105.425
X84.985Y-107.965
X84.985Y-110.505
X84.985Y-113.045
X84.985Y-115.585
X84.985Y-118.125
X84.985Y-120.665
X84.985Y-123.205
X84.985Y-125.745
X84.985Y-128.285
X84.985Y-130.825
X84.985Y-133.365
X84.985Y-135.905
X91.335Y-87.875
X93.875Y-87.875
X96.415Y-87.875
X102.765Y-87.645
X102.765Y-90.185
X102.765Y-92.725
X102.765Y-95.265
X102.765Y-97.805
X102.765Y-100.345
X102.765Y-102.885
X102.765Y-105.425
X102.765Y-107.965
X102.765Y-110.505
X102.765Y-113.045
X102.765Y-115.585
X102.765Y-118.125
X102.765Y-120.665
X102.765Y-123.205
X102.765Y-125.745
X102.765Y-128.285
X102.765Y-130.825
X102.765Y-133.365
X102.765Y-135.905
T2
X119.069Y-108.656
X119.069Y-111.156
X132.588Y-108.754
X132.588Y-111.254
T3
X106.47Y-64.635
X106.47Y-79.875
X109.01Y-64.635
X109.01Y-79.875
X110.49Y-114.3
X110.49Y-118.11
X110.49Y-121.92
X111.55Y-64.635
X111.55Y-79.875
X113.03Y-114.3
X113.03Y-118.11
X113.03Y-121.92
X114.09Y-64.635
X114.09Y-79.875
X115.57Y-114.3
X115.57Y-118.11
X115.57Y-121.92
X116.63Y-64.635
X116.63Y-79.875
X119.17Y-64.635
X119.17Y-79.875
X122.951Y-132.414
X130.551Y-132.414
T4
X85.85Y-77.57
X85.85Y-80.11
X85.85Y-82.65
X110.016Y-126.912
X110.016Y-131.412
X114.607Y-95.733
X114.607Y-100.233
X116.516Y-126.912
X116.516Y-131.412
X121.107Y-95.733
X121.107Y-100.233
X123.271Y-110.888
X125.247Y-95.733
X125.247Y-100.233
X125.811Y-110.888
X128.351Y-110.888
X131.747Y-95.733
X131.747Y-100.233
T5
X83.6Y-65.985
X83.6Y-71.065
T6
X84.42Y-59.419
X110.862Y-105.785
X128.958Y-88.005
X130.12Y-59.614
T3
X123.8Y-121.155G85X123.8Y-119.155
G05
X127.8Y-115.455G85X125.8Y-115.455
G05
X129.8Y-121.155G85X129.8Y-119.155
G05
T0
M30
