0
SECTION
2
HEADER
9
$INSUNITS
70
4
9
$ACADVER
1
AC1014
9
$HANDSEED
5
FFFF
0
ENDSEC
0
SECTION
2
TABLES
0
TABLE
2
VPORT
5
8
100
AcDbSymbolTable
0
ENDTAB
0
TABLE
2
LTYPE
5
5
100
AcDbSymbolTable
0
LTYPE
5
14
100
AcDbSymbolTableRecord
100
AcDbLinetypeTableRecord
2
BYBLOCK
70
0
0
LTYPE
5
15
100
AcDbSymbolTableRecord
100
AcDbLinetypeTableRecord
2
BYLAYER
70
0
0
ENDTAB
0
TABLE
2
LAYER
5
2
100
AcDbSymbolTable
70
2
0
LAYER
5
50
100
AcDbSymbolTableRecord
100
AcDbLayerTableRecord
2
0
70
0
6
CONTINUOUS
0
ENDTAB
0
TABLE
2
STYLE
5
3
100
AcDbSymbolTable
70
1
0
STYLE
5
11
100
AcDbSymbolTableRecord
100
AcDbTextStyleTableRecord
2
STANDARD
70
0
0
ENDTAB
0
TABLE
2
VIEW
5
6
100
AcDbSymbolTable
70
0
0
ENDTAB
0
TABLE
2
UCS
5
7
100
AcDbSymbolTable
70
0
0
ENDTAB
0
TABLE
2
APPID
5
9
100
AcDbSymbolTable
70
2
0
APPID
5
12
100
AcDbSymbolTableRecord
100
AcDbRegAppTableRecord
2
ACAD
70
0
0
ENDTAB
0
TABLE
2
DIMSTYLE
5
A
100
AcDbSymbolTable
70
1
0
ENDTAB
0
TABLE
2
BLOCK_RECORD
5
1
100
AcDbSymbolTable
70
1
0
BLOCK_RECORD
5
1F
100
AcDbSymbolTableRecord
100
AcDbBlockTableRecord
2
*MODEL_SPACE
0
BLOCK_RECORD
5
1B
100
AcDbSymbolTableRecord
100
AcDbBlockTableRecord
2
*PAPER_SPACE
0
ENDTAB
0
ENDSEC
0
SECTION
2
BLOCKS
0
BLOCK
5
20
100
AcDbEntity
100
AcDbBlockBegin
2
*MODEL_SPACE
0
ENDBLK
5
21
100
AcDbEntity
100
AcDbBlockEnd
0
BLOCK
5
1C
100
AcDbEntity
100
AcDbBlockBegin
2
*PAPER_SPACE
0
ENDBLK
5
1D
100
AcDbEntity
100
AcDbBlockEnd
0
ENDSEC
0
SECTION
2
ENTITIES
0
CIRCLE
5
100
100
AcDbEntity
8
0
100
AcDbCircle
10
40.631679544930677
20
-89.446644984176814
30
-4.4408920985006262e-15
40
1.6000000000000192
210
-4.1253810667450134e-32
220
-1.1102230246251565e-16
230
1
0
CIRCLE
5
101
100
AcDbEntity
8
0
100
AcDbCircle
10
84.658574544930843
20
-128.01044591241467
30
0
40
4.0000000000000036
210
3.5186972679063515e-31
220
-2.0124279661704965e-60
230
1
0
CIRCLE
5
102
100
AcDbEntity
8
0
100
AcDbCircle
10
74.018574544930701
20
-128.01044591241509
30
-2.6645352591003757e-14
40
4.0000000000000036
210
-1.4177450703118768e-31
220
-4.4736146381554166e-61
230
1
0
LWPOLYLINE
5
103
100
AcDbEntity
8
0
100
AcDbPolyline
90
4
70
1
43
0.0
10
88.331576544931181
20
-111.90236145544603
10
49.731576544930775
20
-111.90236145544608
10
49.731576544930753
20
-92.102361455468099
10
88.331576544931181
20
-92.102361455468071
0
CIRCLE
5
104
100
AcDbEntity
8
0
100
AcDbCircle
10
86.331654544931183
20
-89.641003984176535
30
-1.3322676295501878e-14
40
1.6000000000000192
210
6.2258603691634651e-31
220
-1.1102230246251565e-16
230
1
0
CIRCLE
5
105
100
AcDbEntity
8
0
100
AcDbCircle
10
67.073909544931041
20
-135.81202898412309
30
-2.6645352591003757e-14
40
1.6000000000000192
210
-1.0439415230349021e-31
220
-1.1102230246251565e-16
230
1
0
CIRCLE
5
106
100
AcDbEntity
8
0
100
AcDbCircle
10
69.427882544930782
20
-159.18951691237874
30
0
40
4.0000000000000036
210
-1.4177450703118768e-31
220
-4.4736146381554166e-61
230
1
0
CIRCLE
5
107
100
AcDbEntity
8
0
100
AcDbCircle
10
85.169962544931209
20
-118.03277298414361
30
0
40
1.6000000000000192
210
4.4662752876225102e-31
220
-1.1102230246251565e-16
230
1
0
CIRCLE
5
108
100
AcDbEntity
8
0
100
AcDbCircle
10
75.125965544931148
20
-166.05322598408799
30
0
40
1.6000000000000192
210
-1.0439415230349021e-31
220
-1.1102230246251565e-16
230
1
0
LWPOLYLINE
5
109
100
AcDbEntity
8
0
100
AcDbPolyline
90
4
70
1
43
0.0
10
-7.8750000000001812
20
-128.06404941994037
10
-7.875000000000183
20
-113.06404941994039
10
32.124999999999815
20
-113.06404941994039
10
32.124999999999815
20
-128.06404941994037
0
LINE
5
110
100
AcDbEntity
8
0
100
AcDbLine
10
-67.875000000000242
20
-175.56404941994032
30
0
11
92.124999999999773
21
-175.56404941994046
31
0
0
LINE
5
111
100
AcDbEntity
8
0
100
AcDbLine
10
92.124999999999773
20
-175.56404941994046
30
0
11
92.124999999999616
21
-167.05894195765723
31
5.5511151231257827e-16
0
LINE
5
112
100
AcDbEntity
8
0
100
AcDbLine
10
92.124999999999616
20
-167.05894195765723
30
5.5511151231257827e-16
11
95.124999999999602
21
-167.05894195765723
31
-1.4791141972893971e-30
0
LINE
5
113
100
AcDbEntity
8
0
100
AcDbLine
10
95.124999999999602
20
-167.05894195765723
30
-1.4791141972893971e-30
11
95.124999999999631
21
-151.05894195765723
31
1.1102230246251565e-15
0
LINE
5
114
100
AcDbEntity
8
0
100
AcDbLine
10
95.124999999999631
20
-151.05894195765723
30
1.1102230246251565e-15
11
92.124999999999631
21
-151.0589419576572
31
0
0
LINE
5
115
100
AcDbEntity
8
0
100
AcDbLine
10
92.124999999999631
20
-151.0589419576572
30
0
11
92.124999999999631
21
-135.05894195765723
31
-1.7763568394002505e-14
0
LINE
5
116
100
AcDbEntity
8
0
100
AcDbLine
10
92.124999999999631
20
-135.05894195765723
30
-1.7763568394002505e-14
11
95.124999999999616
21
-135.05894195765725
31
-8.8817841970012539e-15
0
LINE
5
117
100
AcDbEntity
8
0
100
AcDbLine
10
95.124999999999616
20
-135.05894195765725
30
-8.8817841970012539e-15
11
95.124999999999659
21
-119.0589419576572
31
-6.6613381477509392e-15
0
LINE
5
118
100
AcDbEntity
8
0
100
AcDbLine
10
95.124999999999659
20
-119.0589419576572
30
-6.6613381477509392e-15
11
92.124999999999645
21
-119.0589419576572
31
-8.8817841970012539e-15
0
LINE
5
119
100
AcDbEntity
8
0
100
AcDbLine
10
92.124999999999645
20
-119.0589419576572
30
-8.8817841970012539e-15
11
92.124999999999687
21
-103.0589419576572
31
-6.6613381477509392e-15
0
LINE
5
120
100
AcDbEntity
8
0
100
AcDbLine
10
92.124999999999687
20
-103.0589419576572
30
-6.6613381477509392e-15
11
95.124999999999687
21
-103.0589419576572
31
-1.332267629550188e-14
0
LINE
5
121
100
AcDbEntity
8
0
100
AcDbLine
10
95.124999999999687
20
-103.0589419576572
30
-1.332267629550188e-14
11
95.124999999999716
21
-87.058941957657211
31
0
0
LINE
5
122
100
AcDbEntity
8
0
100
AcDbLine
10
95.124999999999716
20
-87.058941957657211
30
0
11
92.124999999999702
21
-87.058941957657169
31
-8.8817841970012444e-15
0
LINE
5
123
100
AcDbEntity
8
0
100
AcDbLine
10
92.124999999999702
20
-87.058941957657169
30
-8.8817841970012444e-15
11
92.124999999999716
21
-71.058941957657169
31
-1.2212453270876722e-14
0
LINE
5
124
100
AcDbEntity
8
0
100
AcDbLine
10
92.124999999999716
20
-71.058941957657169
30
-1.2212453270876722e-14
11
95.124999999999758
21
-71.058941957657183
31
4.4408920985006254e-15
0
LINE
5
125
100
AcDbEntity
8
0
100
AcDbLine
10
95.124999999999758
20
-71.058941957657183
30
4.4408920985006254e-15
11
95.124999999999758
21
-55.058941957657204
31
5.5511151231257827e-15
0
LINE
5
126
100
AcDbEntity
8
0
100
AcDbLine
10
95.124999999999758
20
-55.058941957657204
30
5.5511151231257827e-15
11
92.124999999999716
21
-55.058941957657169
31
-1.3322676295501878e-14
0
LINE
5
127
100
AcDbEntity
8
0
100
AcDbLine
10
92.124999999999716
20
-55.058941957657169
30
-1.3322676295501878e-14
11
92.124999999999716
21
-53.058941957657062
31
1.3877787807814457e-16
0
LINE
5
128
100
AcDbEntity
8
0
100
AcDbLine
10
92.124999999999716
20
-53.058941957657062
30
1.3877787807814457e-16
11
78.235715772668982
21
-53.058941957657069
31
4.9303806576313238e-31
0
ELLIPSE
5
129
100
AcDbEntity
8
0
100
AcDbEllipse
10
12.124999999999925
20
-6.9451485611765618
30
4.4408920985006262e-15
11
1.2545028370756155e-13
21
81.891696770796045
31
0.0
40
0.97690001739626142
41
2.1689371694080464
42
4.1142481377715399
0
LINE
5
130
100
AcDbEntity
8
0
100
AcDbLine
10
-53.985715772669316
20
-53.058941957656963
30
4.4408920985006656e-15
11
-67.875000000000156
21
-53.05894195765692
31
4.9303806576313238e-30
0
LINE
5
131
100
AcDbEntity
8
0
100
AcDbLine
10
-67.875000000000156
20
-53.05894195765692
30
4.9303806576313238e-30
11
-67.875000000000156
21
-55.058941957656941
31
-8.8817841970012523e-15
0
LINE
5
132
100
AcDbEntity
8
0
100
AcDbLine
10
-67.875000000000156
20
-55.058941957656941
30
-8.8817841970012523e-15
11
-70.875000000000199
21
-55.058941957656948
31
9.8607613152626476e-31
0
LINE
5
133
100
AcDbEntity
8
0
100
AcDbLine
10
-70.875000000000199
20
-55.058941957656948
30
9.8607613152626476e-31
11
-70.875000000000213
21
-71.058941957656927
31
-9.9920072216264089e-15
0
LINE
5
134
100
AcDbEntity
8
0
100
AcDbLine
10
-70.875000000000213
20
-71.058941957656927
30
-9.9920072216264089e-15
11
-67.875000000000142
21
-71.05894195765697
31
-4.4408920985006301e-15
0
LINE
5
135
100
AcDbEntity
8
0
100
AcDbLine
10
-67.875000000000142
20
-71.05894195765697
30
-4.4408920985006301e-15
11
-67.875000000000156
21
-87.058941957656955
31
-5.5511151231257827e-15
0
LINE
5
136
100
AcDbEntity
8
0
100
AcDbLine
10
-67.875000000000156
20
-87.058941957656955
30
-5.5511151231257827e-15
11
-70.875000000000284
21
-87.058941957656955
31
8.8817841970012523e-15
0
LINE
5
137
100
AcDbEntity
8
0
100
AcDbLine
10
-70.875000000000284
20
-87.058941957656955
30
8.8817841970012523e-15
11
-70.875000000000256
21
-103.05894195765696
31
-1.1102230246251565e-15
0
LINE
5
138
100
AcDbEntity
8
0
100
AcDbLine
10
-70.875000000000256
20
-103.05894195765696
30
-1.1102230246251565e-15
11
-67.875000000000185
21
-103.05894195765697
31
-9.8607613152626476e-31
0
LINE
5
139
100
AcDbEntity
8
0
100
AcDbLine
10
-67.875000000000185
20
-103.05894195765697
30
-9.8607613152626476e-31
11
-67.875000000000199
21
-119.05894195765691
31
-9.9920072216264089e-15
0
LINE
5
140
100
AcDbEntity
8
0
100
AcDbLine
10
-67.875000000000199
20
-119.05894195765691
30
-9.9920072216264089e-15
11
-70.875000000000284
21
-119.05894195765696
31
-8.8817841970012555e-15
0
LINE
5
141
100
AcDbEntity
8
0
100
AcDbLine
10
-70.875000000000284
20
-119.05894195765696
30
-8.8817841970012555e-15
11
-70.875000000000298
21
-135.058941957657
31
-9.9920072216264089e-15
0
LINE
5
142
100
AcDbEntity
8
0
100
AcDbLine
10
-70.875000000000298
20
-135.058941957657
30
-9.9920072216264089e-15
11
-67.875000000000199
21
-135.05894195765703
31
-1.7763568394002505e-14
0
LINE
5
143
100
AcDbEntity
8
0
100
AcDbLine
10
-67.875000000000199
20
-135.05894195765703
30
-1.7763568394002505e-14
11
-67.875000000000213
21
-151.05894195765697
31
-1.1102230246251565e-15
0
LINE
5
144
100
AcDbEntity
8
0
100
AcDbLine
10
-67.875000000000213
20
-151.05894195765697
30
-1.1102230246251565e-15
11
-70.875000000000327
21
-151.05894195765697
31
-1.7763568394002505e-14
0
LINE
5
145
100
AcDbEntity
8
0
100
AcDbLine
10
-70.875000000000327
20
-151.05894195765697
30
-1.7763568394002505e-14
11
-70.875000000000341
21
-167.05894195765697
31
-1.8873791418627661e-14
0
LINE
5
146
100
AcDbEntity
8
0
100
AcDbLine
10
-70.875000000000341
20
-167.05894195765697
30
-1.8873791418627661e-14
11
-67.875000000000227
21
-167.05894195765705
31
-8.8817841970012523e-15
0
LINE
5
147
100
AcDbEntity
8
0
100
AcDbLine
10
-67.875000000000227
20
-167.05894195765705
30
-8.8817841970012523e-15
11
-67.875000000000242
21
-175.56404941994032
31
0
0
ENDSEC
0
SECTION
2
OBJECTS
0
DICTIONARY
5
C
100
AcDbDictionary
3
ACAD_GROUP
350
D
3
ACAD_MLINESTYLE
350
17
0
DICTIONARY
5
D
100
AcDbDictionary
0
DICTIONARY
5
1A
330
C
100
AcDbDictionary
0
DICTIONARY
5
17
100
AcDbDictionary
0
ENDSEC
0
EOF
