0
SECTION
2
HEADER
9
$INSUNITS
70
4
9
$ACADVER
1
AC1014
9
$HANDSEED
5
FFFF
0
ENDSEC
0
SECTION
2
TABLES
0
TABLE
2
VPORT
5
8
100
AcDbSymbolTable
0
ENDTAB
0
TABLE
2
LTYPE
5
5
100
AcDbSymbolTable
0
LTYPE
5
14
100
AcDbSymbolTableRecord
100
AcDbLinetypeTableRecord
2
BYBLOCK
70
0
0
LTYPE
5
15
100
AcDbSymbolTableRecord
100
AcDbLinetypeTableRecord
2
BYLAYER
70
0
0
ENDTAB
0
TABLE
2
LAYER
5
2
100
AcDbSymbolTable
70
2
0
LAYER
5
50
100
AcDbSymbolTableRecord
100
AcDbLayerTableRecord
2
0
70
0
6
CONTINUOUS
0
ENDTAB
0
TABLE
2
STYLE
5
3
100
AcDbSymbolTable
70
1
0
STYLE
5
11
100
AcDbSymbolTableRecord
100
AcDbTextStyleTableRecord
2
STANDARD
70
0
0
ENDTAB
0
TABLE
2
VIEW
5
6
100
AcDbSymbolTable
70
0
0
ENDTAB
0
TABLE
2
UCS
5
7
100
AcDbSymbolTable
70
0
0
ENDTAB
0
TABLE
2
APPID
5
9
100
AcDbSymbolTable
70
2
0
APPID
5
12
100
AcDbSymbolTableRecord
100
AcDbRegAppTableRecord
2
ACAD
70
0
0
ENDTAB
0
TABLE
2
DIMSTYLE
5
A
100
AcDbSymbolTable
70
1
0
ENDTAB
0
TABLE
2
BLOCK_RECORD
5
1
100
AcDbSymbolTable
70
1
0
BLOCK_RECORD
5
1F
100
AcDbSymbolTableRecord
100
AcDbBlockTableRecord
2
*MODEL_SPACE
0
BLOCK_RECORD
5
1B
100
AcDbSymbolTableRecord
100
AcDbBlockTableRecord
2
*PAPER_SPACE
0
ENDTAB
0
ENDSEC
0
SECTION
2
BLOCKS
0
BLOCK
5
20
100
AcDbEntity
100
AcDbBlockBegin
2
*MODEL_SPACE
0
ENDBLK
5
21
100
AcDbEntity
100
AcDbBlockEnd
0
BLOCK
5
1C
100
AcDbEntity
100
AcDbBlockBegin
2
*PAPER_SPACE
0
ENDBLK
5
1D
100
AcDbEntity
100
AcDbBlockEnd
0
ENDSEC
0
SECTION
2
ENTITIES
0
LWPOLYLINE
5
100
100
AcDbEntity
8
0
100
AcDbPolyline
90
33
70
1
43
0.0
10
-26.607593662820122
20
-110.89200133226136
10
-29.505371141687327
20
-110.11554419695379
10
-33.646475863327659
20
-125.57035741757889
10
131.72758226603491
20
-125.5703574175788
10
131.72758226603491
20
-120.32703117145149
10
126.56897150530094
20
-113.56496137262312
10
124.18379183691397
20
-115.38455417034297
10
114.4792969157419
20
-102.66359593894597
10
116.86447658412885
20
-100.8440031412262
10
107.1599816629565
20
-88.12304490982946
10
104.77480199456956
20
-89.942637707549281
10
95.070307073397444
20
-77.221679476152318
10
97.455486741784384
20
-75.402086678432582
10
87.750991820611759
20
-62.681128447036052
10
85.365812152224834
20
-64.500721244755823
10
75.661317231052706
20
-51.779763013358931
10
78.046496899439589
20
-49.960170215639195
10
68.342001978267618
20
-37.239211984242182
10
65.956822309880721
20
-39.058804781961939
10
56.252327388708579
20
-26.33784655056505
10
58.637507057095505
20
-24.518253752845276
10
39.933155962439926
20
-8.8817841970012523e-15
10
4.4408920985006262e-15
20
-8.8817841970012523e-15
10
-8.7998475334856749
20
-32.841478093828293
10
-5.9020700546184717
20
-33.617935229135853
10
-10.043174776258802
20
-49.072748449760951
10
-12.940952255126003
20
-48.296291314453384
10
-17.082056976766314
20
-63.751104535078497
10
-14.184279497899109
20
-64.527561670386049
10
-18.325384219539437
20
-79.982374891011162
10
-21.223161698406642
20
-79.205917755703595
10
-25.364266420046995
20
-94.660730976328693
10
-22.46648894117979
20
-95.43718811163626
0
CIRCLE
5
101
100
AcDbEntity
8
0
100
AcDbCircle
10
17.521927496187754
20
-16.130825571145785
30
0
40
2.7500000000000013
210
0
220
0
230
1
0
CIRCLE
5
102
100
AcDbEntity
8
0
100
AcDbCircle
10
42.52192749618775
20
-16.130825571145785
30
0
40
2.7500000000000036
210
0
220
0
230
1
0
ENDSEC
0
SECTION
2
OBJECTS
0
DICTIONARY
5
C
100
AcDbDictionary
3
ACAD_GROUP
350
D
3
ACAD_MLINESTYLE
350
17
0
DICTIONARY
5
D
100
AcDbDictionary
0
DICTIONARY
5
1A
330
C
100
AcDbDictionary
0
DICTIONARY
5
17
100
AcDbDictionary
0
ENDSEC
0
EOF
